<?xml version="1.0" standalone="no"?>
<!DOCTYPE svg PUBLIC "-//W3C//DTD SVG 20010904//EN"
 "http://www.w3.org/TR/2001/REC-SVG-20010904/DTD/svg10.dtd">
<svg version="1.0" xmlns="http://www.w3.org/2000/svg"
 width="256.000000pt" height="256.000000pt" viewBox="0 0 256.000000 256.000000"
 preserveAspectRatio="xMidYMid meet">
<metadata>
Created by potrace 1.11, written by Peter Selinger 2001-2013
</metadata>
<g transform="translate(0.000000,256.000000) scale(0.100000,-0.100000)"
fill="#000000" stroke="none">
<path d="M1721 1875 c-174 -33 -288 -105 -349 -220 -24 -45 -27 -60 -27 -155
0 -122 15 -160 86 -224 71 -64 148 -90 388 -131 156 -26 206 -44 222 -79 16
-35 -5 -82 -44 -103 -106 -54 -390 -21 -533 62 l-41 24 -57 -120 c-31 -67 -56
-124 -56 -129 0 -12 134 -68 217 -90 228 -60 474 -48 637 30 89 42 140 90 178
167 28 57 33 77 33 142 0 97 -17 143 -74 204 -75 81 -132 101 -445 161 -79 15
-139 32 -155 44 -29 21 -39 69 -21 102 45 83 312 85 489 4 30 -13 55 -23 56
-22 1 2 28 57 58 123 l56 120 -25 13 c-139 73 -424 110 -593 77z"/>
<path d="M490 1831 c-94 -24 -157 -51 -225 -96 l-54 -36 36 -59 c22 -37 40
-57 47 -53 6 4 31 20 54 36 24 16 76 41 115 56 64 23 87 26 202 26 122 0 133
-2 181 -27 98 -52 144 -138 144 -270 l0 -68 -237 0 c-175 0 -255 -4 -301 -15
-177 -42 -266 -145 -267 -310 0 -68 4 -89 28 -137 63 -129 200 -198 392 -198
153 0 268 44 350 131 l45 48 0 -84 0 -85 75 0 75 0 0 396 c0 455 -5 494 -71
593 -43 65 -101 108 -188 142 -81 32 -294 37 -401 10z m500 -709 c0 -91 -2
-101 -28 -143 -37 -58 -103 -116 -161 -142 -58 -26 -229 -36 -297 -17 -100 28
-164 106 -164 200 0 100 62 168 175 193 11 3 122 5 248 6 l227 1 0 -98z"/>
</g>
</svg>
